<svg xmlns="http://www.w3.org/2000/svg" viewBox="0 0 32 32" role="img" aria-label="VSG"><title>VSG</title><rect width="32" height="32" rx="8" fill="#0B0B0D"/><g transform="translate(4.317 19.611) scale(0.010620)"><path fill="#F2F1EC" d="M178.5 -680.0 L335.9 -234.1 L362.8 -128.9 L350.2 -128.9 L377.1 -234.1 L535.1 -680.0 L696.5 -680.0 L446.7 -0.0 L258.0 -0.0 L7.8 -680.0 L178.5 -680.0 Z M883.9 -505.4 Q883.9 -478.0 900.8 -461.8 Q917.7 -445.6 946.4 -435.9 Q975.2 -426.1 1010.7 -419.4 Q1046.2 -412.6 1084.1 -404.8 Q1122.1 -397.0 1157.6 -383.8 Q1193.0 -370.5 1221.8 -348.6 Q1250.6 -326.7 1267.5 -291.8 Q1284.4 -256.9 1284.4 -204.9 Q1284.4 -135.0 1248.8 -85.3 Q1213.2 -35.6 1150.9 -9.7 Q1088.6 16.3 1008.9 16.3 Q928.5 16.3 865.3 -8.7 Q802.0 -33.6 761.5 -84.6 Q720.9 -135.6 709.0 -212.8 L877.9 -212.8 Q887.5 -162.8 922.0 -136.1 Q956.5 -109.3 1010.5 -109.3 Q1064.8 -109.3 1092.4 -129.5 Q1119.9 -149.8 1119.9 -184.9 Q1119.9 -213.5 1103.0 -231.1 Q1086.2 -248.6 1057.4 -259.1 Q1028.6 -269.5 993.1 -277.4 Q957.7 -285.3 919.7 -293.9 Q881.7 -302.5 846.3 -315.5 Q810.8 -328.6 782.0 -350.1 Q753.2 -371.6 736.4 -405.5 Q719.5 -439.5 719.5 -489.6 Q719.5 -547.2 750.1 -594.1 Q780.8 -641.0 839.4 -668.6 Q897.9 -696.3 981.5 -696.3 Q1052.4 -696.3 1113.0 -672.8 Q1173.6 -649.2 1214.3 -600.1 Q1255.0 -550.9 1265.1 -471.8 L1094.0 -471.8 Q1083.5 -522.6 1053.9 -546.7 Q1024.3 -570.7 975.2 -570.7 Q933.2 -570.7 908.6 -552.9 Q883.9 -535.1 883.9 -505.4 Z M1957.0 -462.0 L1789.4 -462.0 Q1775.3 -512.3 1739.8 -538.5 Q1704.4 -564.6 1653.5 -564.6 Q1602.8 -564.6 1566.7 -537.4 Q1530.5 -510.3 1511.4 -459.8 Q1492.3 -409.3 1492.3 -339.0 Q1492.3 -268.7 1512.0 -218.7 Q1531.7 -168.7 1569.2 -142.1 Q1606.7 -115.4 1659.0 -115.4 Q1695.9 -115.4 1726.8 -129.2 Q1757.7 -143.1 1778.0 -172.2 Q1798.3 -201.4 1803.7 -247.4 L1879.1 -247.4 Q1879.1 -158.2 1848.5 -99.6 Q1817.9 -41.0 1765.0 -12.4 Q1712.0 16.3 1643.6 16.3 Q1548.6 16.3 1477.7 -26.8 Q1406.8 -69.9 1367.4 -149.4 Q1327.9 -228.8 1327.9 -339.0 Q1327.9 -449.2 1367.9 -529.4 Q1407.8 -609.7 1481.7 -653.0 Q1555.6 -696.3 1657.7 -696.3 Q1731.1 -696.3 1793.7 -670.0 Q1856.3 -643.8 1899.6 -591.8 Q1942.8 -539.8 1957.0 -462.0 Z M1956.6 -0.0 L1847.8 -0.0 L1803.7 -247.4 L1674.4 -247.4 L1674.4 -367.6 L1956.6 -367.6 L1956.6 -0.0 Z"/><path fill="#2CCFBF" d="M2031.8 -0.0 L2031.8 -160.7 L2192.4 -160.7 L2192.4 -0.0 L2031.8 -0.0 Z"/></g></svg>
